<svg width="197" height="31" viewBox="0 0 197 31" fill="none" xmlns="http://www.w3.org/2000/svg">
<path d="M32.993 11.959V0.584234C32.993 0.273071 32.7437 0.0195312 32.4377 0.0195312H27.9219C27.616 0.0195312 27.3667 0.273071 27.3667 0.584234V11.3942C27.3667 11.7054 27.1173 11.959 26.8114 11.959H6.18158C5.87561 11.959 5.62631 11.7054 5.62631 11.3942V0.584234C5.62631 0.273071 5.37701 0.0195312 5.07105 0.0195312H0.555265C0.249303 0.0195312 0 0.273071 0 0.584234V30.4328C0 30.744 0.249303 30.9975 0.555265 30.9975H32.4434C32.7493 30.9975 32.9986 30.744 32.9986 30.4328V17.6924V11.9647L32.993 11.959ZM26.8001 25.2698H6.18158C5.87561 25.2698 5.62631 25.0163 5.62631 24.7051V18.2571C5.62631 17.9459 5.87561 17.6924 6.18158 17.6924H26.8001C27.106 17.6924 27.3553 17.9459 27.3553 18.2571V24.7051C27.3553 25.0163 27.106 25.2698 26.8001 25.2698Z" fill="#FF7455"/>
<path d="M96.2656 0.0145009H91.7498C91.4439 0.0145009 91.1946 0.268041 91.1946 0.579203V16.5061C91.1946 18.6151 90.526 20.701 89.1775 22.3087C87.9083 23.8242 85.9082 25.1553 82.7976 25.259H58.9948C58.6889 25.259 58.4396 25.0055 58.4396 24.6943V18.8226C58.4396 18.5114 58.6889 18.2578 58.9948 18.2578H84.4407C84.741 18.2578 84.9846 18.0101 84.9846 17.7047L84.9677 1.01137C84.9677 0.458196 84.5257 0.00873864 83.9818 0.00873864H52.9379V0.00297637C48.1558 -0.0834577 45.4305 1.73166 44.1273 2.97055C43.776 3.30476 43.1981 3.04545 43.1981 2.5499V0.584966C43.1981 0.273803 42.9488 0.0202632 42.6428 0.0202632H38.127C37.8211 0.0202632 37.5718 0.273803 37.5718 0.584966V30.4335C37.5718 30.7447 37.8211 30.9982 38.127 30.9982H42.6428C42.9488 30.9982 43.1981 30.7447 43.1981 30.4335V16.0912C43.1981 12.5244 44.9149 9.11313 47.9008 7.24615C49.2324 6.41638 50.8925 5.81711 52.9379 5.74796H78.7917C79.0977 5.74796 79.347 6.0015 79.347 6.31266V11.9712C79.347 12.2824 79.0977 12.5359 78.7917 12.5359H58.4339H53.3572C53.0512 12.5359 52.8019 12.7895 52.8019 13.1006V30.9982H82.8316C87.5853 31.0674 89.965 29.0967 90.8716 28.0883C90.9849 27.9615 91.1946 28.0422 91.1946 28.2151V30.4278C91.1946 30.7389 91.4439 30.9925 91.7498 30.9925H96.2656C96.5716 30.9925 96.8209 30.7389 96.8209 30.4278V0.584966C96.8209 0.273803 96.5716 0.0202632 96.2656 0.0202632V0.0145009Z" fill="#FF7455"/>
<path d="M133.173 11.959V0.584234C133.173 0.273071 132.924 0.0195312 132.618 0.0195312H128.102C127.796 0.0195312 127.547 0.273071 127.547 0.584234V11.3942C127.547 11.7054 127.297 11.959 126.991 11.959H106.373C106.067 11.959 105.818 11.7054 105.818 11.3942V0.584234C105.818 0.273071 105.568 0.0195312 105.262 0.0195312H100.747C100.441 0.0195312 100.191 0.273071 100.191 0.584234V30.4328C100.191 30.744 100.441 30.9975 100.747 30.9975H132.635C132.941 30.9975 133.19 30.744 133.19 30.4328V17.6924V11.9647L133.173 11.959ZM126.98 25.2698H106.362C106.056 25.2698 105.806 25.0163 105.806 24.7051V18.2571C105.806 17.9459 106.056 17.6924 106.362 17.6924H126.98C127.286 17.6924 127.535 17.9459 127.535 18.2571V24.7051C127.535 25.0163 127.286 25.2698 126.98 25.2698Z" fill="#FF7455"/>
<path d="M196.445 0.0145009H191.929C191.623 0.0145009 191.374 0.268041 191.374 0.579203V16.5061C191.374 18.6151 190.705 20.701 189.357 22.3087C188.087 23.8242 186.087 25.1553 182.977 25.259H159.174C158.868 25.259 158.619 25.0055 158.619 24.6943V18.8226C158.619 18.5114 158.868 18.2578 159.174 18.2578H184.62C184.92 18.2578 185.164 18.0101 185.164 17.7047L185.147 1.01137C185.147 0.458196 184.705 0.00873864 184.161 0.00873864H153.117V0.00297637C148.335 -0.0834577 145.61 1.73166 144.307 2.97055C143.955 3.30476 143.377 3.04545 143.377 2.5499V0.584966C143.377 0.273803 143.128 0.0202632 142.822 0.0202632H138.306C138 0.0202632 137.751 0.273803 137.751 0.584966V30.4335C137.751 30.7447 138 30.9982 138.306 30.9982H142.822C143.128 30.9982 143.377 30.7447 143.377 30.4335V16.0912C143.377 12.5244 145.094 9.11313 148.08 7.24615C149.412 6.41638 151.072 5.81711 153.117 5.74796H178.971C179.277 5.74796 179.526 6.0015 179.526 6.31266V11.9712C179.526 12.2824 179.277 12.5359 178.971 12.5359H158.613H153.536C153.23 12.5359 152.981 12.7895 152.981 13.1006V30.9982H183.011C187.765 31.0674 190.144 29.0967 191.051 28.0883C191.164 27.9615 191.374 28.0422 191.374 28.2151V30.4278C191.374 30.7389 191.623 30.9925 191.929 30.9925H196.445C196.751 30.9925 197 30.7389 197 30.4278V0.584966C197 0.273803 196.751 0.0202632 196.445 0.0202632V0.0145009Z" fill="#FF7455"/>
</svg>
