<svg width="106" height="17" viewBox="0 0 106 17" fill="none" xmlns="http://www.w3.org/2000/svg">
<path d="M17.6577 6.67302V0.802201C17.6577 0.641601 17.5243 0.510742 17.3606 0.510742H14.9437C14.78 0.510742 14.6465 0.641601 14.6465 0.802201V6.38157C14.6465 6.54217 14.5131 6.67302 14.3494 6.67302H3.30836C3.14461 6.67302 3.01119 6.54217 3.01119 6.38157V0.802201C3.01119 0.641601 2.87776 0.510742 2.71401 0.510742H0.297176C0.133426 0.510742 0 0.641601 0 0.802201V16.2079C0 16.3685 0.133426 16.4994 0.297176 16.4994H17.3636C17.5273 16.4994 17.6608 16.3685 17.6608 16.2079V9.63223V6.676L17.6577 6.67302ZM14.3433 13.5431H3.30836C3.14461 13.5431 3.01119 13.4123 3.01119 13.2517V9.92369C3.01119 9.76309 3.14461 9.63223 3.30836 9.63223H14.3433C14.5071 9.63223 14.6405 9.76309 14.6405 9.92369V13.2517C14.6405 13.4123 14.5071 13.5431 14.3433 13.5431Z" fill="#FF7455"/>
<path d="M51.5207 0.507484H49.1038C48.9401 0.507484 48.8067 0.638344 48.8067 0.798944V9.01929C48.8067 10.1078 48.4488 11.1844 47.7271 12.0142C47.0479 12.7964 45.9774 13.4834 44.3126 13.5369H31.5735C31.4097 13.5369 31.2763 13.406 31.2763 13.2454V10.2149C31.2763 10.0543 31.4097 9.92341 31.5735 9.92341H45.192C45.3527 9.92341 45.4831 9.79552 45.4831 9.63789L45.474 1.022C45.474 0.736488 45.2375 0.50451 44.9464 0.50451H28.3318V0.501536C25.7725 0.456925 24.3139 1.39376 23.6164 2.03318C23.4284 2.20568 23.1191 2.07185 23.1191 1.81608V0.801918C23.1191 0.641318 22.9857 0.510458 22.8219 0.510458H20.4051C20.2413 0.510458 20.1079 0.641318 20.1079 0.801918V16.2076C20.1079 16.3682 20.2413 16.4991 20.4051 16.4991H22.8219C22.9857 16.4991 23.1191 16.3682 23.1191 16.2076V8.80515C23.1191 6.9642 24.0379 5.20355 25.636 4.23995C26.3486 3.81168 27.2371 3.50238 28.3318 3.46669H42.1687C42.3325 3.46669 42.4659 3.59755 42.4659 3.75815V6.67869C42.4659 6.83929 42.3325 6.97015 42.1687 6.97015H31.2733H28.5562C28.3925 6.97015 28.259 7.10101 28.259 7.26161V16.4991H44.3308C46.875 16.5348 48.1486 15.5176 48.6338 14.9972C48.6945 14.9317 48.8067 14.9734 48.8067 15.0626V16.2047C48.8067 16.3653 48.9401 16.4961 49.1038 16.4961H51.5207C51.6844 16.4961 51.8178 16.3653 51.8178 16.2047V0.801918C51.8178 0.641318 51.6844 0.510458 51.5207 0.510458V0.507484Z" fill="#FF7455"/>
<path d="M71.2737 6.67302V0.802201C71.2737 0.641601 71.1403 0.510742 70.9766 0.510742H68.5597C68.396 0.510742 68.2626 0.641601 68.2626 0.802201V6.38157C68.2626 6.54217 68.1291 6.67302 67.9654 6.67302H56.9304C56.7667 6.67302 56.6333 6.54217 56.6333 6.38157V0.802201C56.6333 0.641601 56.4998 0.510742 56.3361 0.510742H53.9193C53.7555 0.510742 53.6221 0.641601 53.6221 0.802201V16.2079C53.6221 16.3685 53.7555 16.4994 53.9193 16.4994H70.9857C71.1494 16.4994 71.2828 16.3685 71.2828 16.2079V9.63223V6.676L71.2737 6.67302ZM67.9593 13.5431H56.9244C56.7606 13.5431 56.6272 13.4123 56.6272 13.2517V9.92369C56.6272 9.76309 56.7606 9.63223 56.9244 9.63223H67.9593C68.1231 9.63223 68.2565 9.76309 68.2565 9.92369V13.2517C68.2565 13.4123 68.1231 13.5431 67.9593 13.5431Z" fill="#FF7455"/>
<path d="M105.136 0.507484H102.72C102.556 0.507484 102.422 0.638344 102.422 0.798944V9.01929C102.422 10.1078 102.065 11.1844 101.343 12.0142C100.664 12.7964 99.5931 13.4834 97.9283 13.5369H85.1892C85.0254 13.5369 84.892 13.406 84.892 13.2454V10.2149C84.892 10.0543 85.0254 9.92341 85.1892 9.92341H98.8077C98.9685 9.92341 99.0989 9.79552 99.0989 9.63789L99.0898 1.022C99.0898 0.736488 98.8532 0.50451 98.5621 0.50451H81.9475V0.501536C79.3882 0.456925 77.9296 1.39376 77.2321 2.03318C77.0441 2.20568 76.7348 2.07185 76.7348 1.81608V0.801918C76.7348 0.641318 76.6014 0.510458 76.4376 0.510458H74.0208C73.8571 0.510458 73.7236 0.641318 73.7236 0.801918V16.2076C73.7236 16.3682 73.8571 16.4991 74.0208 16.4991H76.4376C76.6014 16.4991 76.7348 16.3682 76.7348 16.2076V8.80515C76.7348 6.9642 77.6536 5.20355 79.2517 4.23995C79.9643 3.81168 80.8528 3.50238 81.9475 3.46669H95.7844C95.9482 3.46669 96.0816 3.59755 96.0816 3.75815V6.67869C96.0816 6.83929 95.9482 6.97015 95.7844 6.97015H84.889H82.1719C82.0082 6.97015 81.8748 7.10101 81.8748 7.26161V16.4991H97.9465C100.491 16.5348 101.764 15.5176 102.25 14.9972C102.31 14.9317 102.422 14.9734 102.422 15.0626V16.2047C102.422 16.3653 102.556 16.4961 102.72 16.4961H105.136C105.3 16.4961 105.434 16.3653 105.434 16.2047V0.801918C105.434 0.641318 105.3 0.510458 105.136 0.510458V0.507484Z" fill="#FF7455"/>
</svg>
