<svg width="78" height="78" viewBox="0 0 78 78" fill="none" xmlns="http://www.w3.org/2000/svg">
<path d="M34 18.0001V19.0001C34.3557 19.0001 34.6846 18.8111 34.8638 18.5039L34 18.0001ZM35.75 15V14C35.3943 14 35.0654 14.1889 34.8862 14.4961L35.75 15ZM42.25 15L43.1138 14.4961C42.9346 14.1889 42.6057 14 42.25 14V15ZM44 18.0001L43.1362 18.5039C43.3154 18.8111 43.6443 19.0001 44 19.0001V18.0001ZM30 30.7503V20.5001H28V30.7503H30ZM31.5 19.0001H34V17.0001H31.5V19.0001ZM34.8638 18.5039L36.6138 15.5039L34.8862 14.4961L33.1362 17.4962L34.8638 18.5039ZM35.75 16H42.25V14H35.75V16ZM41.3862 15.5039L43.1362 18.5039L44.8638 17.4962L43.1138 14.4961L41.3862 15.5039ZM44 19.0001H46.5V17.0001H44V19.0001ZM48 20.5001V30.7503H50V20.5001H48ZM48 30.7503C48 31.5788 47.3284 32.2503 46.5 32.2503V34.2503C48.433 34.2503 50 32.6833 50 30.7503H48ZM46.5 19.0001C47.3284 19.0001 48 19.6716 48 20.5001H50C50 18.5671 48.433 17.0001 46.5 17.0001V19.0001ZM30 20.5001C30 19.6716 30.6716 19.0001 31.5 19.0001V17.0001C29.567 17.0001 28 18.5671 28 20.5001H30ZM31.5 32.2503C30.6716 32.2503 30 31.5788 30 30.7503H28C28 32.6833 29.567 34.2503 31.5 34.2503V32.2503ZM41.75 25.0002C41.75 26.519 40.5188 27.7502 39 27.7502V29.7502C41.6234 29.7502 43.75 27.6236 43.75 25.0002H41.75ZM39 27.7502C37.4812 27.7502 36.25 26.519 36.25 25.0002H34.25C34.25 27.6236 36.3766 29.7502 39 29.7502V27.7502ZM36.25 25.0002C36.25 23.4813 37.4812 22.2501 39 22.2501V20.2501C36.3766 20.2501 34.25 22.3768 34.25 25.0002H36.25ZM39 22.2501C40.5188 22.2501 41.75 23.4813 41.75 25.0002H43.75C43.75 22.3768 41.6234 20.2501 39 20.2501V22.2501ZM46.5 32.2503H31.5V34.2503H46.5V32.2503Z" fill="#767676"/>
<path d="M17.1406 50.6562C17.125 53.1797 18.3906 55.7266 20.5781 56.7812L19.5156 58.1719C17.9844 57.3984 16.8828 55.9062 16.2812 54.1094C15.6641 56.0312 14.5078 57.625 12.8906 58.4375L11.8281 57.0469C14.1016 55.9688 15.3984 53.2656 15.4062 50.6562V48.4062H17.1406V50.6562ZM21.4219 61.3906V47.2656H23.1562V52.7969H25.3281V54.2812H23.1562V61.3906H21.4219ZM31.2812 50.1406C31.2812 51.8984 32.4844 53.6172 34.7344 54.3125L33.8438 55.6719C32.2422 55.1562 31.0781 54.0938 30.4297 52.75C29.7969 54.2109 28.5938 55.375 26.9219 55.9531L26.0312 54.5781C28.3047 53.8281 29.5156 52 29.5312 50.1406V49.7344H26.4844V48.3438H34.25V49.7344H31.2812V50.1406ZM28.3438 61.1094V56.5938H30.0938V59.7031H38.0781V61.1094H28.3438ZM35.9375 57.5312V47.2812H37.6875V57.5312H35.9375ZM48.1875 60.1562C45.4609 60.1562 43.8359 58.0469 43.8438 54.3438C43.8359 50.6562 45.4766 48.5312 48.1875 48.5312C50.8984 48.5312 52.5312 50.6562 52.5312 54.3438C52.5312 58.0547 50.9062 60.1562 48.1875 60.1562ZM45.8906 54.3438C45.8906 57.0625 46.7656 58.4453 48.1875 58.4531C49.6016 58.4453 50.4844 57.0625 50.4844 54.3438C50.4766 51.6484 49.6016 50.2266 48.1875 50.2188C46.7734 50.2266 45.8984 51.6484 45.8906 54.3438ZM58.8594 48.1562L55.2188 61.7031H53.4688L57.125 48.1562H58.8594ZM64.5625 48.6875V60H62.5156V50.6719H62.4531L59.8125 52.3594V50.5L62.6094 48.6875H64.5625Z" fill="#767676"/>
<rect x="0.5" y="0.5" width="77" height="77" rx="11.5" stroke="#767676"/>
</svg>
