<svg width="89.4" height="14" viewBox="0 0 137 21" fill="none" xmlns="http://www.w3.org/2000/svg">
<g id="Group 2608640">
<path id="Icon" d="M10.4562 0.343335C10.6821 -0.114445 11.3349 -0.114445 11.5608 0.343335L14.4855 6.26936C14.5752 6.45114 14.7486 6.57714 14.9493 6.60629L21.489 7.55657C21.9942 7.62998 22.1959 8.25081 21.8304 8.60715L17.0981 13.2199C16.953 13.3614 16.8867 13.5653 16.921 13.7651L18.0381 20.2784C18.1244 20.7816 17.5963 21.1653 17.1445 20.9277L11.2951 17.8525C11.1157 17.7582 10.9013 17.7582 10.7219 17.8525L4.87257 20.9277C4.42071 21.1653 3.8926 20.7816 3.9789 20.2784L5.09602 13.7651C5.13029 13.5653 5.06405 13.3614 4.91888 13.2199L0.186674 8.60715C-0.178886 8.25081 0.0228347 7.62998 0.528026 7.55657L7.06778 6.60629C7.26839 6.57714 7.44181 6.45114 7.53153 6.26936L10.4562 0.343335Z" fill="#FFBE58"/>
<path id="Icon_2" d="M39.1398 0.343335C39.3657 -0.114445 40.0185 -0.114445 40.2444 0.343335L43.1691 6.26936C43.2588 6.45114 43.4322 6.57714 43.6328 6.60629L50.1726 7.55657C50.6778 7.62998 50.8795 8.25081 50.514 8.60715L45.7817 13.2199C45.6366 13.3614 45.5703 13.5653 45.6046 13.7651L46.7217 20.2784C46.808 20.7816 46.2799 21.1653 45.8281 20.9277L39.9787 17.8525C39.7993 17.7582 39.5849 17.7582 39.4055 17.8525L33.5562 20.9277C33.1043 21.1653 32.5762 20.7816 32.6625 20.2784L33.7796 13.7651C33.8139 13.5653 33.7476 13.3614 33.6025 13.2199L28.8703 8.60715C28.5047 8.25081 28.7064 7.62998 29.2116 7.55657L35.7514 6.60629C35.952 6.57714 36.1254 6.45114 36.2151 6.26936L39.1398 0.343335Z" fill="#FFBE58"/>
<path id="Icon_3" d="M67.8234 0.343335C68.0493 -0.114445 68.7021 -0.114445 68.928 0.343335L71.8527 6.26936C71.9424 6.45114 72.1158 6.57714 72.3164 6.60629L78.8562 7.55657C79.3614 7.62998 79.5631 8.25081 79.1975 8.60715L74.4653 13.2199C74.3202 13.3614 74.2539 13.5653 74.2882 13.7651L75.4053 20.2784C75.4916 20.7816 74.9635 21.1653 74.5116 20.9277L68.6623 17.8525C68.4829 17.7582 68.2685 17.7582 68.0891 17.8525L62.2398 20.9277C61.7879 21.1653 61.2598 20.7816 61.3461 20.2784L62.4632 13.7651C62.4975 13.5653 62.4312 13.3614 62.2861 13.2199L57.5539 8.60715C57.1883 8.25081 57.39 7.62998 57.8952 7.55657L64.435 6.60629C64.6356 6.57714 64.809 6.45114 64.8987 6.26936L67.8234 0.343335Z" fill="#FFBE58"/>
<path id="Icon_4" d="M96.507 0.343335C96.7329 -0.114445 97.3857 -0.114445 97.6116 0.343335L100.536 6.26936C100.626 6.45114 100.799 6.57714 101 6.60629L107.54 7.55657C108.045 7.62998 108.247 8.25081 107.881 8.60715L103.149 13.2199C103.004 13.3614 102.938 13.5653 102.972 13.7651L104.089 20.2784C104.175 20.7816 103.647 21.1653 103.195 20.9277L97.3459 17.8525C97.1665 17.7582 96.9521 17.7582 96.7727 17.8525L90.9233 20.9277C90.4715 21.1653 89.9434 20.7816 90.0297 20.2784L91.1468 13.7651C91.1811 13.5653 91.1148 13.3614 90.9697 13.2199L86.2375 8.60715C85.8719 8.25081 86.0736 7.62998 86.5788 7.55657L93.1186 6.60629C93.3192 6.57714 93.4926 6.45114 93.5823 6.26936L96.507 0.343335Z" fill="#FFBE58"/>
<path id="Icon_5" d="M125.191 0.343335C125.417 -0.114445 126.069 -0.114445 126.295 0.343335L129.22 6.26936C129.31 6.45114 129.483 6.57714 129.684 6.60629L136.223 7.55657C136.729 7.62998 136.93 8.25081 136.565 8.60715L131.833 13.2199C131.687 13.3614 131.621 13.5653 131.655 13.7651L132.773 20.2784C132.859 20.7816 132.331 21.1653 131.879 20.9277L126.03 17.8525C125.85 17.7582 125.636 17.7582 125.456 17.8525L119.607 20.9277C119.155 21.1653 118.627 20.7816 118.713 20.2784L119.83 13.7651C119.865 13.5653 119.798 13.3614 119.653 13.2199L114.921 8.60715C114.555 8.25081 114.757 7.62998 115.262 7.55657L121.802 6.60629C122.003 6.57714 122.176 6.45114 122.266 6.26936L125.191 0.343335Z" fill="#EFEFEF"/>
</g>
</svg>
