<svg xmlns="http://www.w3.org/2000/svg" width="27" height="26" viewBox="0 0 27 26" fill="none">
<path d="M12.773 0.880395C13.0426 0.334139 13.8215 0.334139 14.0911 0.880395L17.581 7.95175C17.6881 8.16867 17.895 8.31902 18.1344 8.3538L25.9381 9.48774C26.5409 9.57534 26.7816 10.3162 26.3454 10.7414L20.6986 16.2456C20.5254 16.4145 20.4464 16.6578 20.4872 16.8962L21.8203 24.6683C21.9233 25.2687 21.2931 25.7266 20.7539 25.4431L13.774 21.7736C13.5599 21.661 13.3041 21.661 13.09 21.7736L6.11019 25.4431C5.571 25.7266 4.94083 25.2687 5.0438 24.6683L6.37683 16.8962C6.41773 16.6578 6.33868 16.4145 6.16546 16.2456L0.518651 10.7414C0.0824395 10.3162 0.323146 9.57534 0.925976 9.48774L8.72968 8.3538C8.96906 8.31902 9.176 8.16867 9.28305 7.95175L12.773 0.880395Z" fill="#FFBE58"/>
</svg>